<?xml version="1.0" encoding="UTF-8"?>
<!-- Generator: Adobe Illustrator 20.1.0, SVG Export Plug-In . SVG Version: 6.00 Build 0)  -->
<svg version="1.1" id="Layer_1" xmlns="http://www.w3.org/2000/svg" xmlns:xlink="http://www.w3.org/1999/xlink" x="0px" y="0px" viewBox="0 0 612 584.6" style="enable-background:new 0 0 612 584.6;" xml:space="preserve">
<style type="text/css">
	.st0{fill:#BA5027;}
	.st1{fill:#EDE81D;}
	.st2{fill:#E8C0A6;}
	.st3{fill:#C9AA9A;}
	.st4{fill:#FCD5B6;}
	.st5{fill:#EFBBA0;}
	.st6{fill:#5E3938;}
	.st7{fill:#FFFFFF;stroke:#DDF2FD;stroke-width:3;stroke-miterlimit:10;}
	.st8{fill:#DDF2FD;}
	.st9{fill:#492F2F;}
	.st10{fill:#A87373;}
	.st11{fill:#966565;}
	.st12{fill:#1C4923;}
	.st13{fill:#F5EBF4;stroke:#ECDDED;stroke-width:3;stroke-miterlimit:10;}
	.st14{fill:#ECDDED;}
	.st15{fill:#DDF2FD;stroke:#61C0EA;stroke-width:3;stroke-miterlimit:10;}
	.st16{fill:#5D250C;}
</style>
<path class="st0" d="M312.6,85.3c0,0,124.3-22,139,48.7s34.8,161.5,34.8,161.5s-22-34.1-20.7-33.5c1.3,0.6,5.9,92.2-21.4,133.7  S389,454,389,454l16.7-36.1L347,454l3.9-36.1l-38.4,63.4L231.5,426c0,0,22.2,36.7,20.2,35.3c-2-1.3-51.3-13.7-75.3-61.5  s-42-104.3-42-104.3l-4.7,33.8c0,0-31.3-128.7,8-172s69.2-96,121.9-86.7S312.6,85.3,312.6,85.3z"/>
<path class="st1" d="M247.5,512.7c0,0-14.8,9.1-33.6,12s-50.3,10.4-53.3,23.9s0,36,0,36h331.5c0,0-25.5-47.8-39-59.9s-50.4,0-50.4,0  l-30.4-12H247.5z"/>
<path class="st2" d="M248.2,357.7c0,0,21.8,62,19.8,92s-9.8,52-9.8,52s26.8,12,51.3,11c24.5-1,53.9-11,53.9-11s-29-30.2-20.1-52  c8.8-21.8,20.1-103.8,20.1-103.8L248.2,357.7z"/>
<path class="st3" d="M267.8,437.7c5,14,15.8,26.9,29.6,32.8c15.7,6.8,30.9,0.8,43.4-9.5c0.3-0.3,0.7-0.6,1-0.9  c0.2-2,0.7-3.9,1.5-5.8c8.8-21.8,20.1-103.8,20.1-103.8l-115.2,11.8c0,0,14.9,42.4,19,74.1C267.5,436.8,267.7,437.2,267.8,437.7z"/>
<path class="st4" d="M190.4,246.5c0,0,3.7,9.9,0,29.8c-3.7,19.8-19.3,67.6,0,96.1s28,59.5,119,65.7c90.9,6.2,132.1-59.5,134.6-85  c2.5-25.4-10-75-10-75l10.3-24.8c0,0-0.3-149.5-125.5-158.8s-139.2,75.7-137.8,92.4S190.4,246.5,190.4,246.5z"/>
<path class="st5" d="M408.8,254.2c-15.8-4.6-31.8-8.6-47.8-12.2c-37.9-8.5-77.9-21.8-115.8-6.5c-13.7,5.5-26.5,13.7-37.6,23.6  c-2.6,12.5-0.1,26.9,4.9,37.3c0.5,1.1,1.1,2.1,1.7,3.1c8-0.7,16-1.3,24-1.6c35.9-1.6,71.9,0,107.7,3.5c14.9,1.4,29.8,3.1,44.7,5  c1-1.4,1.9-2.8,2.8-4.3c7.4-12.2,13.6-26.3,15.1-40.6C408.7,259.1,408.9,256.6,408.8,254.2z"/>
<g>
	<path class="st6" d="M418.1,309.2c-5.7-10.1-12.1-20.1-20.8-27.9c-8.4-7.5-18.3-13.3-28.2-18.6c-23.8,1.6-56.1,14.4-69.3,13.4   c0,0-9.1-5.9-52.5-5.5c-3.2,0-6.2,0.2-9.1,0.6c-5.2,6.2-10.6,12.3-16.1,18.3c-0.4,0.8-1,1.5-1.8,2c-8.1,8.8-16.4,17.5-24.7,26.1   c-1.6,1.6-3.1,3.3-4.6,4.9c-1.3,6.8-2.2,14.1-2.9,21.9c-2.6,31.5,29,62.1,69.7,78.3c0.2-0.1,0.3-0.1,0.5-0.2   c22.9-9.5,47.1-12,71.7-10.6c13.8,0.8,27.3,2.8,40.6,5.9c29.8-17.9,50.9-46.6,55.9-66.7c1.9-7.5,1.9-15.8,0.5-24.1   C424.3,321,421.3,315,418.1,309.2z"/>
	<path class="st7" d="M397.3,281.3c-8.7-7.8-19-13.8-29.4-19.3c-22.4,0.5-50.8,9.1-63.6,8.2c0,0-13.5,0-57,0.4   c-3.2,0-6.2,0.2-9.1,0.6c-5.2,6.2-10.6,12.3-16,18.3c-0.4,0.8-1,1.5-1.9,2c-4.1,4.4-8.2,8.8-12.3,13.2c1.6,5.9,4.1,11.1,8.8,14.5   c3.1,2.2,10.8,6.4,13.1,1.8c1.2-2.5,0.9-5.9,1.8-8.6c1.1-3.3,3-5.9,5.6-8.1c8.7-7.4,21.6-8,32.2-9.3c14.3-1.7,28.4-4.2,42.9-4   c11.8,0.2,23.3,1.2,35.1,1c11.1-0.2,22.8,0.2,33.1,5.4c5.1,2.5,9.6,6.2,12.9,11c0.7,0.9,2.4,5.1,3.3,5.5c2,0.8,5-3.5,5.8-4.8   c2.8-4.2,4.9-8.9,7-13.6C406,290.3,402,285.5,397.3,281.3z"/>
	<path class="st8" d="M221.9,290c-0.4,0.6-0.9,1.1-1.6,1.6c-4.1,4.4-8.2,8.8-12.3,13.2c1.6,5.9,4.1,11.1,8.8,14.5   c3.1,2.2,10.8,6.4,13.1,1.8c1.2-2.5,0.9-5.9,1.8-8.6c0.5-1.5,1.2-2.9,2-4.2C228.3,303.8,224.2,297.2,221.9,290z"/>
	<path class="st8" d="M404.6,289c-2.3,7.3-5.8,14-11.4,19c0.1,0.1,0.2,0.2,0.3,0.3c0.7,0.9,2.4,5.1,3.3,5.5c2,0.8,5-3.5,5.8-4.8   c2.8-4.2,4.9-8.9,7-13.6C408,293.2,406.3,291.1,404.6,289z"/>
	<path class="st9" d="M305.5,389.8c0,0-42.4-7.6-44.8-33.1c-2.4-25.5-3.2-50.1,18.2-45.8c21.3,4.2,8.7,18.7,11.8,28.8   c3.2,10.2,15,14.8,22.1,10.4c7.1-4.4-2.4-29.9,0-34.1s17.4-10.2,24.9,2.5c7.5,12.7,7.5,55.1-9.1,65.3   C312.1,394.1,305.5,389.8,305.5,389.8z"/>
	<path class="st10" d="M258.3,422.6c22.9-9.5,47.1-12,71.7-10.6c13.8,0.8,27.3,2.8,40.6,5.9c7.6-4.6,14.6-9.8,21-15.5   c1.4-8.5,0.2-16.9-5-24c-13.2-17.9-41-6.6-56.6,0.2c-11.9,5.2-23.3,5.9-35.4,1.2c-6.2-2.4-12.1-5.7-18.4-7.4   c-6-1.6-12.1-1.6-18.2-1.6c-10.3-0.1-22.5-3.7-30.1,6c-5.4,7-5.7,17.1-6,26c10.5,7.9,22.8,14.7,36,20   C258,422.7,258.2,422.7,258.3,422.6z"/>
	<path class="st11" d="M388.3,378.4c-13.2-17.9-41-6.6-56.6,0.2c-11.9,5.2-23.3,5.9-35.4,1.2c-6.2-2.4-12.1-5.7-18.4-7.4   c-6-1.6-12.1-1.6-18.2-1.6c-10.3-0.1-22.5-3.7-30.1,6c-5.4,7-5.7,17.1-6,26c7.5,5.6,15.9,10.7,24.9,15.1c0.8-5.8,3.9-11.3,9.8-15.7   c16.5-12.5,40.5-14.8,60-15c18.2-0.2,44.1,1.8,55.2,20.1c1.5,2.5,2.6,5.2,3.2,8c5.9-3.9,11.5-8.2,16.6-12.8   C394.7,393.9,393.6,385.6,388.3,378.4z"/>
	<path class="st8" d="M233.7,308.2l12.5-8.5c0,0,2.8,16.7,0,18.4c-2.8,1.7-18.9,7.2-18.9,7.2l-13.4-8.5"/>
	<path class="st8" d="M372.5,297.6c0,0,6.7,18.4,11,21s16.5-4.7,16.5-4.7l5.6-11.5l-21.2-2.7l-10.3-4.9l-9.4-2.1L372.5,297.6z"/>
</g>
<path class="st12" d="M258.2,501.7l-10.8,11.1c0,0,44.2,14.8,58.4,13.3c14.2-1.5,66.4-13.3,66.4-13.3l-10.8-13.3  c0,0-45.3,13.6-55.6,13.3C295.5,512.5,258.2,501.7,258.2,501.7"/>
<path class="st13" d="M267.5,584.6c0,0-10.5-81.6-11.8-80.3c-1.2,1.3-20.2,15.9-32.1,18.4s-56.1,9.4-64.4,19.4s1.3,42.6,1.3,42.6  H267.5z"/>
<path class="st14" d="M263.7,563c0.1,0.1,0.1,0.2,0.2,0.4c-3.2-24-7.9-57.8-8.7-57c-1,1-13.1,10.5-24.1,15.5  C246.1,532,256.4,546.6,263.7,563z"/>
<path class="st13" d="M357.4,494.6c0,0,0.5,0.8,1.3,2.3c4.3,7.9,18.1,33.7,17.3,42.1c-1,10-9.3,45.6-9.3,45.6h125.4  c0,0-27.6-55-42.1-62c-14.5-7-54.5-3.4-61-9.7c-6.5-6.3-38.1-27.5-38.1-27.5L357.4,494.6z"/>
<path class="st14" d="M366.7,584.6H384c-0.4-3.8-0.6-7.5-0.5-11.1c0.3-19.2,4.3-40.1,14.2-56.7c0.2-0.3,0.4-0.6,0.6-0.9  c-4.4-0.7-7.8-1.6-9.3-3c-6.5-6.3-38.1-27.5-38.1-27.5l6.5,9.3c0,0,0.5,0.8,1.3,2.3c4.3,7.9,18.1,33.7,17.3,42.1  C375,549,366.7,584.6,366.7,584.6z"/>
<path d="M198.5,262.5c0-1.5,8.3-11,8.3-11l62.4-14.5l10.5,9.5l-12.9-5l-68.2,25.9V262.5z"/>
<path d="M416.6,257.9c0-1.5-7.7-11-7.7-11l-58.4-14.5l-9.8,9.5l12.1-5l63.9,25.9V257.9z"/>
<circle class="st15" cx="190.8" cy="284.5" r="11.1"/>
<ellipse transform="matrix(0.8358 -0.5491 0.5491 0.8358 -159.1807 136.7322)" class="st15" cx="149" cy="334.5" rx="11.1" ry="8.1"/>
<ellipse transform="matrix(0.8358 -0.5491 0.5491 0.8358 -138.8725 134.7948)" class="st15" cx="155.9" cy="299.6" rx="4.5" ry="3.3"/>
<ellipse transform="matrix(0.8358 -0.5491 0.5491 0.8358 -173.768 150.5321)" class="st15" cx="164.8" cy="365.8" rx="4.5" ry="3.3"/>
<ellipse transform="matrix(0.8358 -0.5491 0.5491 0.8358 -195.0605 147.4634)" class="st15" cx="149" cy="399.8" rx="11.1" ry="8.1"/>
<ellipse transform="matrix(0.583 -0.8124 0.8124 0.583 -66.1582 497.4668)" class="st15" cx="451.6" cy="313.2" rx="9.3" ry="13.3"/>
<ellipse transform="matrix(0.583 -0.8124 0.8124 0.583 -97.5815 534.2387)" class="st15" cx="471.7" cy="362.2" rx="9.3" ry="13.3"/>
<ellipse class="st15" cx="421.7" cy="264.9" rx="17.4" ry="7.2"/>
<path class="st0" d="M315.6,80.3l37.6-54.7c0,0,66.8,26.6,95.6,104.7c28.8,78.1,37.5,150.8,37.5,150.8l-77.6-127.7  c0,0-28.6-17.6-27.4-16.8c1.2,0.8,33.6,55.1,33.6,55.1l-61.7-57.4c0,0,1,13.3,0,50c-1,36.7-21.9,72.6-21.9,72.6l-51.8-94.5  l18.6,47.9c0,0-38.1-35.4-40.9-51.8c-2.9-16.4-5.9-38.3-5.9-38.3s-7.4,77.6-8.9,87.3s-53.6,55.4-53.6,55.4l-23.9,31.6  c0,0-20.7-28.2-3.9-91.5s25.8-100.7,59.1-114.8s37.7-11.7,37.7-11.7l-33.2-8.6c0,0,69.7-14.3,73.4-12.2S315.6,80.3,315.6,80.3z"/>
<path class="st13" d="M342.5,466.2c0,0-0.3,8.1,10.3,21.8c10.6,13.7,22.8,46.9,22.8,46.9s13.5-21.6,27.1-25.6  c13.6-4,25.3,8.8,25.3,8.8s-13.3-27.5-19.1-36.8c-5.8-9.3-65.5-31.7-65.5-31.7L342.5,466.2z"/>
<path class="st14" d="M352.9,488.1c0.9-2.3,1.9-4.5,3.2-6.6c5-8.4,12.1-14.3,20.2-18.4c-16.5-7.2-33-13.4-33-13.4l-0.8,16.5  C342.5,466.2,342.2,474.3,352.9,488.1C352.8,488,352.9,488,352.9,488.1z"/>
<path class="st13" d="M267.5,460.7l-7.9,48l3.9,26.2c0,0-6.4-29.3-29.8-35.4s-31.9,4.7-31.9,4.7l38.2-47.3l28.1-7.2L267.5,460.7z"/>
<path class="st14" d="M249.9,467.4c5.3,5.7,8.6,13.9,11.6,20.9c0.4,0.8,0.7,1.7,1,2.5l5-30.2l0.6-11l-28.1,7.2l-3,3.7  C241.9,461.6,246.5,463.6,249.9,467.4z"/>
<path class="st16" d="M279.5,162.3c1.1,2,51.8,94.5,51.8,94.5l-35.9-114L272,121.3L279.5,162.3z"/>
<polygon class="st16" points="297.1,207.5 279.5,162.3 272,121.3 270.5,164.4 "/>
<path class="st16" d="M353.6,147.9l-0.4-13.7l61.7,57.4l-55.1-62.5c0,0-11.9-27.7-12.3-24.2c-0.4,3.5,1.8,28.9,1.8,28.9l4.2,28.5  L353.6,147.9z"/>
<polygon class="st16" points="381.4,136.5 373.9,108.8 389.1,136.5 408.7,153.4 "/>
<polygon class="st16" points="251.3,120.1 242.4,207.5 211.8,241.8 232.3,204.3 "/>
<polygon class="st16" points="129.7,329.3 134.3,295.5 132,257.7 "/>
<path class="st16" d="M240,456.9l7.5-3.9l-16-27l36.6,23.7l-1.5-17.4c0,0-29.4-8.7-37.3-14.4c-8-5.6-25.2-24.5-25.2-24.5l15.5,39.2  l-36-20.5c0,0,21.2,26.3,36,34.3C234.3,454.4,240,456.9,240,456.9z"/>
<path class="st16" d="M348.9,436.1c0,0,34.6-9.3,46.8-18.2c12.3-8.9,28-24.5,28-24.5l20.5-37.8l-10.8,40.3l21.1-21.9  c0,0-17.1,36.7-26.6,48.9S389,454,389,454l16.7-36.1l-54.8,33.7l-5.1-4.6L348.9,436.1z"/>
<path d="M414.9,205l-1.4,6.6c0,0-19.9,2.8-40.4-0.5c-20.5-3.3-50.8-16.2-50.8-16.2l2-9.2c0,0,12.5,14.6,43.4,18.9  S414.9,205,414.9,205z"/>
<path d="M188.4,222.6l2.4,5.2c0,0,22.8-4.4,45.4-14.2c22.6-9.8,55.2-31.2,55.2-31.2l-3.4-7.3c0,0-12.2,16.8-46.4,31  C207.5,220.3,188.4,222.6,188.4,222.6z"/>
</svg>